<?xml version="1.0" encoding="UTF-8" standalone="no"?>
<svg
   xmlns:dc="http://purl.org/dc/elements/1.1/"
   xmlns:cc="http://creativecommons.org/ns#"
   xmlns:rdf="http://www.w3.org/1999/02/22-rdf-syntax-ns#"
   xmlns:svg="http://www.w3.org/2000/svg"
   xmlns="http://www.w3.org/2000/svg"
   xmlns:sodipodi="http://sodipodi.sourceforge.net/DTD/sodipodi-0.dtd"
   xmlns:inkscape="http://www.inkscape.org/namespaces/inkscape"
   id="Calque_1"
   data-name="Calque 1"
   viewBox="0 0 512.00001 512"
   version="1.1"
   inkscape:version="0.92.3 (2405546, 2018-03-11)"
   sodipodi:docname="logo-mooc-factory.svg"
   width="512"
   height="512"
   inkscape:export-filename="/home/cri-ninja/Downloads/_wall/logo-moocfactory.png"
   inkscape:export-xdpi="90"
   inkscape:export-ydpi="90">
  <metadata
     id="metadata33">
    <rdf:RDF>
      <cc:Work
         rdf:about="">
        <dc:format>image/svg+xml</dc:format>
        <dc:type
           rdf:resource="http://purl.org/dc/dcmitype/StillImage" />
        <dc:title>logo-mooc-factory</dc:title>
      </cc:Work>
    </rdf:RDF>
  </metadata>
  <sodipodi:namedview
     pagecolor="#ffffff"
     bordercolor="#666666"
     borderopacity="1"
     objecttolerance="10"
     gridtolerance="10"
     guidetolerance="10"
     inkscape:pageopacity="0"
     inkscape:pageshadow="2"
     inkscape:window-width="1920"
     inkscape:window-height="1026"
     id="namedview31"
     showgrid="false"
     showguides="true"
     inkscape:zoom="1.4566147"
     inkscape:cx="368.49498"
     inkscape:cy="265.38914"
     inkscape:window-x="0"
     inkscape:window-y="25"
     inkscape:window-maximized="1"
     inkscape:current-layer="g4514"
     fit-margin-top="0"
     fit-margin-left="0"
     fit-margin-right="0"
     fit-margin-bottom="0" />
  <defs
     id="defs3">
    <style
       id="style5">.cls-1{fill:none;stroke:#73b6e0;stroke-miterlimit:10;stroke-width:0.25px;}.cls-2{font-size:206.13px;}.cls-2,.cls-4{fill:#25b6da;}.cls-2,.cls-4,.cls-5{font-family:Cyclone-Background, Cyclone;}.cls-3,.cls-5{fill:#405981;}.cls-3{letter-spacing:0em;}.cls-4{font-size:49.6px;}.cls-5{font-size:39.81px;}</style>
  </defs>
  <title
     id="title7">logo-mooc-factory</title>
  <g
     id="g4514"
     transform="translate(56.380005,40.705002)">
    <g
       id="g4264">
      <path
         sodipodi:nodetypes="cccccccc"
         inkscape:connector-curvature="0"
         id="path4623"
         d="M 7.4484973,84.565362 157.5214,-37.26411 434.54276,73.14086 426.78249,365.78008 146.42591,469.82649 4.2773114,339.16656 -35.182783,210.78007 Z"
         style="fill:#ffffff;fill-rule:evenodd;stroke:#1fb4dc;stroke-width:1.0;stroke-linecap:butt;stroke-linejoin:miter;stroke-miterlimit:4;stroke-dasharray:none;stroke-opacity:1" />
      <path
         sodipodi:nodetypes="ccccccscc"
         inkscape:connector-curvature="0"
         id="path4625"
         d="M -35.182783,210.78007 C -34.372638,206.72921 157.5214,-37.26411 157.5214,-37.26411 L 245.83006,19.174484 7.4484973,84.565362 4.2773114,339.16656 239.34867,412.51281 c 0,0 200.11243,-343.107683 195.25133,-339.056826 C 429.73902,77.506843 281.07256,222.52756 281.07256,222.52756 L 157.5214,-37.26411"
         style="fill:none;fill-rule:evenodd;stroke:#1fb4dc;stroke-width:1.0;stroke-linecap:butt;stroke-linejoin:miter;stroke-miterlimit:4;stroke-dasharray:none;stroke-opacity:1" />
      <path
         sodipodi:nodetypes="ccccccccccccc"
         inkscape:connector-curvature="0"
         id="path4627"
         d="M 7.4484973,84.565362 152.05278,213.41313 -35.182783,210.78007 146.17891,469.62991 281.07256,222.52756 152.05278,213.41313 239.34867,412.51281 426.78249,365.78008 376.26774,218.88178 434.6,73.455984 245.83006,19.174484 152.05278,213.41313 4.2773114,339.16656"
         style="fill:none;fill-rule:evenodd;stroke:#1fb4dc;stroke-width:1.0;stroke-linecap:butt;stroke-linejoin:miter;stroke-miterlimit:4;stroke-dasharray:none;stroke-opacity:1" />
      <path
         sodipodi:nodetypes="cccc"
         inkscape:connector-curvature="0"
         id="path4629"
         d="m 245.83006,19.174484 c 2.43043,3.240686 130.43768,199.707296 130.43768,199.707296 l -136.91907,193.63103 -92.35949,57.1171"
         style="fill:none;fill-rule:evenodd;stroke:#1fb4dc;stroke-width:1.0;stroke-linecap:butt;stroke-linejoin:miter;stroke-miterlimit:4;stroke-dasharray:none;stroke-opacity:1" />
      <path
         inkscape:connector-curvature="0"
         id="path4633"
         d="m 152.05278,213.41313 223.4047,5.87375"
         style="fill:none;fill-rule:evenodd;stroke:#1fb4dc;stroke-width:1.0;stroke-linecap:butt;stroke-linejoin:miter;stroke-miterlimit:4;stroke-dasharray:none;stroke-opacity:1"
         sodipodi:nodetypes="cc" />
      <path
         sodipodi:nodetypes="cc"
         inkscape:connector-curvature="0"
         id="path4635"
         d="M 281.47758,222.52756 426.78249,365.78008"
         style="fill:none;fill-rule:evenodd;stroke:#1fb4dc;stroke-width:1.0;stroke-linecap:butt;stroke-linejoin:miter;stroke-miterlimit:4;stroke-dasharray:none;stroke-opacity:1" />
    </g>
    <g
       id="g4225">
      <path
         sodipodi:nodetypes="cccccccccccccccc"
         inkscape:connector-curvature="0"
         id="path4461"
         d="m 14.386419,295.12872 24.755978,0 0,-129.36994 c 3.574592,-4.67455 12.168832,-10.64641 13.461768,0 l 0,129.36994 23.610539,0 0,-129.36994 c 3.454515,-6.0317 14.336672,-9.98154 14.264968,0 l 0,129.36994 25.098218,0 0,-139.18106 c -3.91816,-32.52801 -34.779288,-21.67031 -41.644842,-11.31277 -12.78278,-16.3006 -29.422813,-9.68542 -34.790651,0 l 0,-7.73906 -24.755978,0 z"
         style="fill:#1fb4dc;fill-opacity:1;fill-rule:evenodd;stroke:none;stroke-width:1px;stroke-linecap:butt;stroke-linejoin:miter;stroke-opacity:1" />
      <path
         sodipodi:nodetypes="sccsccssccsccs"
         inkscape:connector-curvature="0"
         id="path4463"
         d="m 156.87572,134.83855 c -27.2645,0 -30.34651,24.30255 -30.34651,24.30255 l 0,116.36468 c 0,0 5.1874,22.81726 30.34651,22.81726 25.1591,0 30.34651,-22.81726 30.34651,-22.81726 l 0,-116.36468 c 0,0 -3.08202,-24.30255 -30.34651,-24.30255 z m 0,24.29521 c 5.46259,0 6.08068,4.86894 6.08068,4.86894 l 0,105.45362 c 0,0 -1.03993,4.57152 -6.08068,4.57152 -5.04074,0 -6.07885,-4.57152 -6.07885,-4.57152 l 0,-105.45362 c 0,0 0.61627,-4.86894 6.07885,-4.86894 z"
         style="fill:#1fb4dc;fill-opacity:1;fill-rule:evenodd;stroke:none;stroke-width:1px;stroke-linecap:butt;stroke-linejoin:miter;stroke-opacity:1" />
      <path
         sodipodi:nodetypes="sccsccssccsccs"
         style="fill:#1fb4dc;fill-opacity:1;fill-rule:evenodd;stroke:none;stroke-width:1px;stroke-linecap:butt;stroke-linejoin:miter;stroke-opacity:1"
         d="m 228.51999,134.83855 c -27.26451,0 -30.34651,24.30255 -30.34651,24.30255 l 0,116.36468 c 0,0 5.1874,22.81726 30.34651,22.81726 25.15909,0 30.3465,-22.81726 30.3465,-22.81726 l 0,-116.36468 c 0,0 -3.08201,-24.30255 -30.3465,-24.30255 z m 0,24.29521 c 5.46258,0 6.08067,4.86894 6.08067,4.86894 l 0,105.45362 c 0,0 -1.03993,4.57152 -6.08067,4.57152 -5.04074,0 -6.07885,-4.57152 -6.07885,-4.57152 l 0,-105.45362 c 0,0 0.61627,-4.86894 6.07885,-4.86894 z"
         id="path4465"
         inkscape:connector-curvature="0" />
      <path
         sodipodi:nodetypes="sccsccccsccsccccs"
         inkscape:connector-curvature="0"
         id="path4467"
         d="m 300.16423,134.83855 c -27.2645,0 -30.3465,24.30255 -30.3465,24.30255 l 0,116.36468 c 0,0 5.18739,22.81726 30.3465,22.81726 25.1591,0 30.34651,-22.81726 30.34651,-22.81726 l 0,-36.27848 -24.26582,0 0,30.22902 c 0,0 -1.03994,4.57152 -6.08069,4.57152 -5.04074,0 -6.07885,-4.57152 -6.07885,-4.57152 l 0,-105.45362 c 0,0 0.61627,-4.86894 6.07885,-4.86894 5.46259,0 6.08069,4.86894 6.08069,4.86894 l 0,29.36427 24.26582,0 0,-34.22587 c 0,0 -3.08202,-24.30255 -30.34651,-24.30255 z"
         style="fill:#3e5981;fill-opacity:1;fill-rule:evenodd;stroke:none;stroke-width:1px;stroke-linecap:butt;stroke-linejoin:miter;stroke-opacity:1" />
    </g>
  </g>
</svg>
